<?xml version="1.0" encoding="UTF-8" standalone="no"?>
<!DOCTYPE svg PUBLIC "-//W3C//DTD SVG 1.1//EN" "http://www.w3.org/Graphics/SVG/1.1/DTD/svg11.dtd">
<svg width="100%" height="100%" viewBox="0 0 954 954" version="1.1" xmlns="http://www.w3.org/2000/svg" xmlns:xlink="http://www.w3.org/1999/xlink" xml:space="preserve" xmlns:serif="http://www.serif.com/" style="fill-rule:evenodd;clip-rule:evenodd;stroke-linejoin:round;stroke-miterlimit:2;">
    <g transform="matrix(1,0,0,1,0,-954)">
        <g transform="matrix(1,0,0,1,954,3.52429e-12)">
            <rect id="Sleep-Token-Logo" serif:id="Sleep Token Logo" x="-954" y="954" width="954" height="954" style="fill:none;"/>
            <g id="Sleep-Token-Logo1" serif:id="Sleep Token Logo">
                <g id="Sleep-Token-Logo2" serif:id="Sleep Token Logo" transform="matrix(1.61816,0,0,1.61816,-1247.09,-882.094)">
                    <path d="M483.887,1248.4L483.061,1330.17C483.287,1330.19 483.513,1330.22 483.738,1330.25L491.028,1282.88L512.532,1267.3L502.664,1335.03C503.488,1335.35 504.305,1335.69 505.115,1336.04L515.185,1303.29L539.729,1290.71L521.43,1345.57C536.709,1357.16 547.608,1374.23 551.195,1393.85L570.6,1374.44L570.6,1188.82L761.665,1378.92L761.665,1406.46L673.16,1318.4L673.16,1647.74L653.66,1628.24L653.66,1318.96L628.01,1344.61L628.01,1534.38L608.51,1514.54L608.51,1364.11L590.1,1382.52L590.1,1614.45L552.473,1576.82L552.473,1668.34L532.973,1648.84L532.973,1557.32L474.137,1498.48L415.301,1557.32L415.301,1648.84L395.801,1668.34L395.801,1576.82L358.173,1614.45L358.173,1382.52L339.764,1364.11L339.764,1514.54L320.264,1534.38L320.264,1344.61L294.613,1318.96L294.613,1628.24L275.113,1647.74L275.113,1318.4L186.608,1406.46L186.608,1378.92L377.673,1188.82L377.673,1374.44L397.079,1393.85C400.665,1374.23 411.564,1357.16 426.843,1345.57L408.544,1290.71L433.088,1303.29L443.158,1336.04C443.968,1335.69 444.785,1335.35 445.609,1335.03L435.742,1267.3L457.245,1282.88L464.535,1330.25C464.761,1330.22 464.986,1330.19 465.212,1330.17L464.387,1248.4L474.137,1226.35L483.887,1248.4ZM395.801,1420.15L377.673,1402.02L377.673,1567.37L395.801,1549.24L395.801,1420.15ZM552.473,1420.15L570.6,1402.02L570.6,1567.37L552.473,1549.24L552.473,1420.15ZM415.301,1439.65L415.301,1529.74L460.348,1484.69L415.301,1439.65ZM532.973,1439.65L532.973,1529.74L487.925,1484.69L532.973,1439.65ZM473.756,1349.17C441.459,1349.37 415.301,1375.66 415.301,1408L415.301,1412.07L474.137,1470.9L532.973,1412.07L532.973,1408C532.973,1375.53 506.609,1349.17 474.137,1349.17L473.756,1349.17ZM339.764,1254.11L339.764,1336.53L358.173,1354.94L358.173,1235.81L339.764,1254.11ZM608.51,1254.11L608.51,1336.53L590.1,1354.94L590.1,1235.81L608.51,1254.11ZM298.439,1295.21L320.264,1317.03L320.264,1273.51L298.439,1295.21ZM649.834,1295.21L628.01,1317.03L628.01,1273.51L649.834,1295.21Z"/>
                </g>
            </g>
        </g>
    </g>
</svg>
